<svg width="48" height="48" viewBox="0 0 48 48" fill="none" xmlns="http://www.w3.org/2000/svg">
  <title>Tunnel mark - white</title>
  <path d="M24 10C15.163 10 8 17.163 8 26v5c0 1.657 1.343 3 3 3h26c1.657 0 3-1.343 3-3v-5C40 17.163 32.837 10 24 10Z" fill="#FFFFFF"/>
  <path d="M16 24.5c0-4.418 3.582-8 8-8s8 3.582 8 8v3H16v-3Z" fill="#FFFFFF"/>
  <rect x="21" y="6" width="6" height="7" rx="2" fill="#FFFFFF"/>
  <rect x="12" y="24" width="24" height="2" rx="1" fill="#FFFFFF"/>
  <path d="M16 31h16v1c0 1.105-.895 2-2 2H18c-1.105 0-2-.895-2-2v-1Z" fill="#FFFFFF" opacity="0.9"/>
</svg>
