<?xml version="1.0" encoding="UTF-8"?>
<svg version="1.1" viewBox="0 0 589.48 580.16" xmlns="http://www.w3.org/2000/svg">
<g transform="translate(-8.3499 -13.662)">
<path d="m296.96 593.7c-10.026-3.735-63.445-34.215-131.46-75.008-47.413-28.437-150.23-93.287-154.76-97.608-5.6968-5.4406-6.0078-2.8834 8.584-70.583 9.2765-43.038 27.385-129.09 33.742-160.34 8.0002-39.328 6.2208-36.991 39.821-52.296 12.632-5.7538 13.223-5.5018 10.212 4.3481-8.1981 26.818-18.021 66.201-16.813 67.409 0.25403 0.25403 7.4303-3.0885 15.947-7.4278 21.196-10.799 36.629-17.198 60.762-25.191 19.867-6.5805 29.157-9.0232 56.5-14.855 13-2.7728 13-2.7728 13.602-19.211 3.572-97.609 139.24-94.717 140.26 2.9899 0.14031 13.428 0.14031 13.428 13.64 16.206 44.644 9.1839 78.372 20.574 113.96 38.485 10.154 5.1101 18.679 9.0738 18.944 8.8084 1.102-1.102-8.4677-40.559-15-61.848-5.4754-17.844-5.2838-17.859 24.83-1.9477 17.024 8.9946 15.737 6.5339 23.715 45.368 17.944 87.349 30.679 148.41 39.471 189.26 8.7505 40.659 9.3617 37.065-8.2574 48.553-55.969 36.491-164.97 103.03-227.66 138.97-45.903 26.315-51.955 28.927-60.042 25.915zm-49.807-178.75c7.3762-2.4849 21.366-9.4641 36.847-18.382 18.897-10.886 19.101-10.877 41.168 1.7916 44.652 25.634 59.633 25.134 79.686-2.6587 15.249-21.134 18.55-35.139 11.626-49.323-3.0547-6.2575-36.72-38.985-73.812-71.756-26.404-23.328-55.508-22.244-83.313 3.1011-22.298 20.326-65.216 61.277-67.325 64.239-20.937 29.403 20.73 84.574 55.123 72.988zm46.185-42.555c-9.5354-4.7029-38.225-44.943-36.811-51.63 2.7243-12.88 5.7006-13.764 46.33-13.764 57.08 0 60.243 9.7713 18.384 56.789-9.2194 10.356-18.532 13.228-27.904 8.6053zm-90.622-87.99c18.484-8.9216 22.128-32.012 5.5937-35.444-3.0962-0.64276-13.32-3.1398-22.719-5.5491-19.211-4.9242-18.469-5.0334-20.783 3.058-8.0169 28.023 13.609 49.664 37.909 37.935zm225.47 0.83864c14.552-6.4372 21.531-36.329 10.514-45.031-1.63-1.2875-47.313 9.9734-49.546 12.213-14.589 14.632 18.069 42.091 39.032 32.818zm-94.378-139.49c-1.7016-47.743-59.019-46.811-61.515 1-0.58721 11.25-0.58721 11.25 30.682 11.25 31.269 0 31.269 0 30.833-12.25zm-225.5 38.605c-0.76454-1.9924 1.5968-11.461 7.4455-29.855 20.433-64.261 62.462-105.07 125.71-122.06 11.346-3.0483 10.651-4.5002 9.8763 20.613-0.66139 21.449-0.66139 21.449-6.8429 27.949-15.111 15.89-23.475 34.703-25.066 56.384-0.85987 11.714 1.0674 10.311-22.672 16.501-26.822 6.9933-61.074 19.16-77.797 27.633-8.4662 4.2902-9.9484 4.6847-10.657 2.837zm373.69-5.4474c-23.901-10.601-50.869-19.88-78.356-26.96-17.777-4.5787-15.788-2.7775-16.768-15.189-1.7979-22.769-9.0578-39.341-24.37-55.629-6.685-7.1109-6.6381-6.8383-7.8502-45.631-0.19883-6.3635 1.1952-6.3549 20.344 0.12477 65.08 22.023 99.099 59.595 119.56 132.05 5.6503 20.008 6.1721 19.541-12.561 11.232zm-144.94-115.08c-20.926-9.7573-49.743-9.6768-69.089 0.19294-6.6537 3.3945-6.9675 3.0989-6.9675-6.5635 0-8.9374 2.7198-26.362 5.8459-37.453 1.8321-6.5 1.8321-6.5 6.2431-7.1759 5.5251-0.84659 59.606-1.0124 62.667-0.19215 3.8017 1.0188 8.8689 22.795 9.9167 42.618 0.71648 13.554 1.147 13.126-8.6165 8.5736z" display="none" fill="#989faa"/>
<path d="m296.91 592.68c-13.593-5.0588-112.03-62.497-183.28-106.95-29.862-18.629-75.076-47.26-94.829-60.051-13.488-8.7343-13.355-6.1675-2.833-54.554 4.3812-20.147 10.937-50.806 14.568-68.131s9.0745-43.2 12.096-57.5 8.1991-39.248 11.505-55.44c6.0291-29.532 7.0803-33.154 10.513-36.219 2.615-2.335 35.605-18.841 37.657-18.841 2.2216 0 2.3013-0.49027-2.2834 14.052-6.7361 21.366-16.197 61.105-14.865 62.438 0.31267 0.31267 5.693-2.1225 11.956-5.4115 36.798-19.323 77.154-33.596 118.89-42.045 19.947-4.0385 17.997-2.1642 18.017-17.321 0.0358-27.196 8.8696-46.726 27.331-60.425 48.051-35.656 110.74-2.0429 110.83 59.424 0.0233 15.87-2.0064 14 20.319 18.723 42.628 9.0188 81.061 22.625 116.19 41.136 6.7061 3.5334 12.418 6.0607 12.692 5.6162 0.95558-1.5462-8.445-40.591-14.942-62.063-3.1252-10.328-4.0966-15.123-3.0635-15.123 4.0192 0 38.522 19.104 40.613 22.487 1.875 3.0338 3.5322 10.578 20.98 95.513 8.1116 39.486 21.058 101.11 28.016 133.37 7.9241 36.728 12.214 29.779-37.695 61.058-104.01 65.186-159.92 98.913-216.79 130.78-30.045 16.835-33.994 18.304-41.589 15.478zm-48.134-176.78c5.7393-1.9746 21.153-9.8321 38.015-19.379 16.075-9.1014 18.006-8.904 39.927 4.0814 41.698 24.701 58.006 24.052 78.577-3.1275 23.647-31.244 22.285-45.34-7.0786-73.242-67.693-64.324-74.363-68.767-100.21-66.755-18.265 1.4219-24.062 4.8131-50.504 29.546-5.5 5.1442-16.299 15.23-23.998 22.412-33.965 31.688-35.132 33.048-38.015 44.302-2.8771 11.231 0.81623 23.196 11.963 38.757 17.353 24.225 30.938 30.42 51.327 23.405zm45.723-44.782c-5.0365-2.309-23.9-24.808-33.293-39.71-5.5722-8.8401-3.5149-17.554 5.0638-21.449 7.0032-3.1791 67.468-2.9286 73.174 0.30319 13.099 7.4193 11.099 15.052-11.309 43.157-15.793 19.809-21.957 23.052-33.635 17.698zm-93.818-84.276c16.203-6.0624 27.078-33.795 14.579-37.182-47.962-12.997-48.929-13.047-51.933-2.7197-7.8836 27.106 12.722 49.117 37.353 39.901zm227.86-0.2118c15.667-7.2957 22.08-32.818 11.66-46.409-2.9421-3.8373-50.729 8.2528-53.088 13.431-8.8574 19.44 20.431 42.754 41.428 32.977zm-86.983-138.39c0.93331-38.447-51.6-60.686-68.862-27.626-12.302 23.562-6.4172 48.502 26.689 48.257 31.84-0.23577 41.89-8.9745 42.173-20.631z" fill="#788599"/>
<path d="m286.74 587.13c-47.928-25.046-202.83-118.86-270.74-163.98-10.042-6.6712-10.159-2.4698 1.5689-56.649 10.263-47.415 25.906-121.66 36.926-175.25 8.1865-39.813 5.187-35.219 31.498-48.24 19.482-9.6413 18.661-10.275 12.453 9.6102-4.3916 14.066-14.444 54.852-14.45 58.627-0.0035 2.3976-0.3758 2.5287 13.299-4.6848 24.108-12.717 54.956-25.12 81.984-32.964 10.88-3.1572 18.745-5.0205 46.964-11.125 4.2625-0.92217 7.7741-1.969 7.8035-2.3263 0.0294-0.35729 0.20274-7.1746 0.38511-15.15 2.2176-96.978 133.68-96.52 137.48 0.47886 0.5832 14.901 0.59921 14.983 3.0862 15.711 1.375 0.40264 9.25 2.1474 17.5 3.8773 43.171 9.0522 84.1 23.683 119.08 42.57 10.504 5.6708 10.845 5.6446 9.9952-0.76479-0.94239-7.1041-8.8058-38.343-14.164-56.269-5.5065-18.423-6.7852-17.873 15.35-6.592 23.542 11.998 20.97 7.746 29.378 48.586 22.676 110.15 27.296 132.32 37.447 179.7 10.828 50.538 12.703 44.027-18.241 63.348-9.8159 6.129-23.022 14.413-29.347 18.409-76.211 48.15-151.16 93.242-206.23 124.08-32.155 18.003-31.88 17.953-49.023 8.9939zm90.792-168.22c25.511-4.716 51.191-47.176 42.472-70.226-3.0999-8.1952-28.785-33.751-74.006-73.633-27.521-24.271-57.689-25.293-83.195-2.8178-11.903 10.489-51.748 47.54-63.091 58.668-20.389 20.002-21.176 36.346-2.9801 61.887 23.629 33.168 38.822 34.343 85.922 6.6422 19.98-11.75 20.229-11.746 41.965 0.71771 22.314 12.795 33.83 17.823 43.878 19.155 1.65 0.21884 3.0298 0.46532 3.0663 0.54773 0.0365 0.0824 2.7222-0.34113 5.9683-0.9412zm-83.035-48.323c-1.65-0.7347-5.25-3.9499-8-7.145-40.864-47.477-39.311-53.754 13.42-54.243 50.304-0.46648 57.447 5.0418 38.643 29.802-24.906 32.796-31.205 37.311-44.064 31.586zm-91.901-83.634c13.639-6.6026 21.899-22.777 16.954-33.199-1.9936-4.2011-3.4663-4.8708-18.053-8.2098-6.05-1.3849-15.935-3.8221-21.967-5.4161-12.913-3.4125-12.714-3.4533-15.585 3.1942-12.144 28.119 12.718 56.184 38.651 43.63zm224.65 1.0575c15.789-5.9075 23.46-27.909 15.432-44.26-3.4432-7.012-1.4847-6.9599-27.34-0.72732-27.434 6.6131-26.83 6.3903-28.846 10.639-9.0264 19.022 18.873 42.535 40.754 34.348zm-93.495-128.53c0.90607-0.30455 1.25-3.6816 1.25-12.273 0-50.741-62.497-51.436-63.814-0.70952-0.36343 14-0.36343 14 30.475 13.702 16.961-0.16415 31.401-0.48753 32.089-0.71861z" fill="#9c7a50"/>
<path d="m286.74 587.13c-47.928-25.046-202.83-118.86-270.74-163.98-10.042-6.6712-10.159-2.4698 1.5689-56.649 10.263-47.415 25.906-121.66 36.926-175.25 8.1865-39.813 5.187-35.219 31.498-48.24 19.482-9.6413 18.661-10.275 12.453 9.6102-4.3916 14.066-14.444 54.852-14.45 58.627-0.0035 2.3976-0.3758 2.5287 13.299-4.6848 24.108-12.717 54.956-25.12 81.984-32.964 10.88-3.1572 18.745-5.0205 46.964-11.125 4.2625-0.92217 7.7741-1.969 7.8035-2.3263 0.0294-0.35729 0.20274-7.1746 0.38511-15.15 2.2176-96.978 133.68-96.52 137.48 0.47886 0.5832 14.901 0.59921 14.983 3.0862 15.711 1.375 0.40264 9.25 2.1474 17.5 3.8773 43.171 9.0522 84.1 23.683 119.08 42.57 10.504 5.6708 10.845 5.6446 9.9952-0.76479-0.94239-7.1041-8.8058-38.343-14.164-56.269-5.5065-18.423-6.7852-17.873 15.35-6.592 23.542 11.998 20.97 7.746 29.378 48.586 22.676 110.15 27.296 132.32 37.447 179.7 10.828 50.538 12.703 44.027-18.241 63.348-9.8159 6.129-23.022 14.413-29.347 18.409-76.211 48.15-151.16 93.242-206.23 124.08-32.155 18.003-31.88 17.953-49.023 8.9939zm90.792-168.22c25.511-4.716 51.191-47.176 42.472-70.226-3.0999-8.1952-28.785-33.751-74.006-73.633-27.521-24.271-57.689-25.293-83.195-2.8178-11.903 10.489-51.748 47.54-63.091 58.668-20.389 20.002-21.176 36.346-2.9801 61.887 23.629 33.168 38.822 34.343 85.922 6.6422 19.98-11.75 20.229-11.746 41.965 0.71771 22.314 12.795 33.83 17.823 43.878 19.155 1.65 0.21884 3.0298 0.46532 3.0663 0.54773 0.0365 0.0824 2.7222-0.34113 5.9683-0.9412zm-83.035-48.323c-1.65-0.7347-5.25-3.9499-8-7.145-40.864-47.477-39.311-53.754 13.42-54.243 50.304-0.46648 57.447 5.0418 38.643 29.802-24.906 32.796-31.205 37.311-44.064 31.586zm-91.901-83.634c13.639-6.6026 21.899-22.777 16.954-33.199-1.9936-4.2011-3.4663-4.8708-18.053-8.2098-6.05-1.3849-15.935-3.8221-21.967-5.4161-12.913-3.4125-12.714-3.4533-15.585 3.1942-12.144 28.119 12.718 56.184 38.651 43.63zm224.65 1.0575c15.789-5.9075 23.46-27.909 15.432-44.26-3.4432-7.012-1.4847-6.9599-27.34-0.72732-27.434 6.6131-26.83 6.3903-28.846 10.639-9.0264 19.022 18.873 42.535 40.754 34.348zm-77.27-140.51c-0.10733-59.128-72.27-75.367-91.598-20.613-10.526 29.819-5.4908 33.613 44.622 33.613 46.999 0 46.999 0 46.976-13zm133.85 30.512c-22.622-10.253-55.769-21.826-80.329-28.047-14.832-3.7568-14.46-3.4622-14.498-11.465-0.09364-19.748-10.39-43.757-24.987-58.264-5.7718-5.7363-5.7718-5.7363-6.375-20.736-0.33172-8.25-0.89065-17.812-1.242-21.25-0.75099-7.3464-1.5082-7.1293 11.228-3.2184 69.925 21.471 106.37 61.011 126.82 137.58 3.2944 12.337 3.9461 12.005-10.617 5.4047zm-220.83-121.63c0-10.229 5.2366-38.952 7.5184-41.24 1.8643-1.8691 63.94-2.0267 65.842-0.16708 3.4428 3.3667 9.7422 49.021 6.764 49.021-0.48156 0-3.5191-1.1707-6.75-2.6016-20.925-9.2672-46.312-9.0853-68.624 0.49172-4.75 2.0388-4.75 2.0388-4.75-5.5037z" fill="#4a6189"/>
<path d="m295 591.13c-21.03-8.3106-153.34-87.704-266.5-159.92-24.382-15.559-23.358-7.1817-8.9484-73.21 7.5974-34.814 34.445-162.92 38.953-185.88 2.6295-13.387 3.8966-16.153 8.7995-19.213 5.6446-3.5231 32.762-16.91 34.254-16.91 1.9776 0 1.952 0.14456-2.5041 14.123-8.2894 26.003-17.027 64.921-14.304 63.711 0.4126-0.18333 7.9501-3.9941 16.75-8.4684 36.943-18.783 68.838-30.052 110-38.863 26.316-5.633 22.89-2.3129 23.566-22.832 3.1515-95.663 134.73-94.207 136.46 1.51 0.29381 16.247 0.34241 16.444 4.2313 17.194 51.123 9.8518 87.617 21.805 126.54 41.446 11.445 5.7757 19.157 9.1263 19.717 8.566 1.281-1.281-10.791-52.889-14.847-63.468-5.7401-14.974-5.2974-15.324 9.9062-7.8417 29.321 14.43 26.467 10.35 34.455 49.266 5.8325 28.414 16.292 78.904 27.895 134.66 2.4609 11.825 6.7726 32.075 9.5814 45 9.3241 42.905 9.4037 43.377 7.8635 46.584-2.1464 4.469-1.0858 3.7804-122.45 79.496-34.2 21.336-104.22 62.714-140.35 82.935-26.243 14.688-29.777 15.784-39.066 12.113zm-43.738-175.4c4.2693-1.6607 13.269-6.115 20-9.8985 33.553-18.861 30.673-18.585 53.984-5.181 49.766 28.615 70.061 24.163 91.834-20.144 13.63-27.736 8.4643-35.494-69.301-104.08-31.972-28.2-59.055-27.813-91.28 1.3039-81.091 73.271-84.001 78.449-62.494 111.2 18.651 28.404 34.301 35.729 57.257 26.8zm43.738-45.288c-1.925-0.81537-4.5505-2.7103-5.8345-4.2109-43.824-51.218-42.407-57.168 13.624-57.206 55.02-0.0374 57.267 7.3167 16.453 53.852-7.8861 8.9916-15.365 11.326-24.242 7.5656zm-93.134-82.957c19.189-8.933 26.925-35.534 11.43-39.305-9.3476-2.2746-21.656-5.4439-31.796-8.1869-14.317-3.8731-14.823-3.8503-16.825 0.75884-13.039 30.014 10.248 59.275 37.191 46.733zm227.63 8e-3c13.218-6.4398 19.776-24.096 14.966-40.293-3.1102-10.473-4.2649-10.933-18.534-7.376-41.464 10.335-40.932 10.076-40.932 19.947 0 21.173 25.428 37.013 44.5 27.722zm-7.677-88.568c-0.75765-2.1734-0.76151-3.7615-0.0132-5.404 1.5913-3.4926-0.62651-4.8695-14.31-8.8846-45.503-13.352-94.967-17.468-146-12.15-37.225 3.8791-84.204 16.332-81.024 21.478 0.52014 0.84159 1.0721 0.82842 2.1316-0.0509 1.7548-1.4564 5.3922 1.367 5.3922 4.1854 0 2.9581 0.7265 2.9073 24.026-1.6809 55.663-10.961 101.95-12.601 151.95-5.3839 13.626 1.9668 53.065 9.6761 53.931 10.542 2.1033 2.1033 4.9112 0.20244 3.9164-2.6512zm-66.167-51.606c-0.11095-59.16-91.051-97.052-102.74-6.8838-4.1028 31.646 1.5523 27.032 51.614 26.856 47-0.16502 51.151-6.9375 51.126-19.972z" fill="#4e5564"/>
<path d="m299.35 592.05c-95.019-48.49-184.26-107.33-274.45-164.05-31.627-17.766-1.2699-58.514-1.2546-86.426 13.314-60.545 24.995-121.44 38.588-181.92 11.304-15.6 53.095-33.578 33.597 1.5249-6.3462 16.01-23.375 66.376 10.019 41.622 40.124-19.244 82.918-32.633 126.55-41.168 3.4675-29.076 1.0548-90.742 73.186-91.794 54.84-1.1009 65.627 42.739 67.062 84.263 0.30498 4.4817 5.7047 8.4506 40.406 16.318 37.201 9.3004 72.72 24.334 106.77 41.796 8.199-23.771-21.053-60.919-9.8302-73.621 32.947 6.0796 43.007 40.649 44.523 69.459 13.636 68.406 29.379 136.39 42.029 204.99-17.89 24.342-48.824 32.994-72.076 51.02-71.439 44.111-142.22 89.964-217.23 127.7-2.6458 1.0487-5.1637 0.75105-7.8946 0.29571zm19.755-139.63c18.343 3.9325 57.559-15.205 20.748-24.659-27.849-21.256-65.989-11.869-89.373 9.7776 8.8408 13.999 42.164 12.804 61.398 15.986l3.5971-0.40845zm-71.946-34.474c29.091-14.056 62.682-40.781 91.162-8.844 28.001 20.731 66.043 7.3695 78.046-23.749 7.424-18.755 0.21624-42.209 23.96-41.944 18.586-2.3287 54.294-12.473 30.67-38.449-16.208-10.974-44.885-14.214-24.878-40.208 11.101-35.464-37.508-25.92-55.165-14.742-7.563 26.386-38.71-17.812-41.295 14.549-6.783 17.206-27.928-24.091-25.39-5.847-23.705-7.3411-49.086-3.4281-66.209 15.949-10.241 12.138-36.602 31.043-15.76 5.9384 13.958-8.7727 28.898-43.206 4.7048-23.294-9.2632 7.6708-23.079 6.8714-31.643-7.302-16.142-11.705-61.378-21.027-55.568 12.498 16.791 19.198 3.0224 38.739-17.238 25.589-34.326 13.493-11.859 48.827 12.159 58.074 39.215-2.3572 25.335 41.131 50.405 59.247 10.895 10.298 26.997 18.98 42.039 12.533zm48.344-48.374c-23.075-13.401-54.075-65.646-5.3736-60.022 26.568-7.2078 76.331 7.2827 40.28 37.613-8.0389 11.055-18.42 28.787-34.907 22.409zm126.32-170.65c-14.791-28.721-56.2-18.711-82.915-27.082-51.212-4.4696-103.63 0.24714-152.35 17.141-4.5658 20.365 40.211 3.7177 52.94 2.4906 60.396-9.4866 122.42-4.0654 181.53 10.635 1.3562-0.74638 0.82094-2.0394 0.79647-3.1844zm-88.158-38.077c18.829 1.5664 21.897 1.0154 21.446-9.3861-6.0498-68.019-68.607-74.188-91.323-43.731-12.197 37.249-51.568 52.636 8.9457 52.47zm-223.33 20.659c11.14-82.004 76.851-129.22 134.68-150.42 15.776-4.9128 4.8441 18.912 5.4062 23.065-5.1204 42.491-34.732 40.806-34.512 90.002-22.073 14.965-46.253 17.473-71.067 26.178-10.496 1.8974-24.224 10.419-34.505 11.18zm369.23-10.693c-25.213-17.678-62.452-19.209-84.835-35.449 0.64889-20.565 7.0865-36.189-13.208-50.433-11.826-4.9395-21.875-37.071-18.122-49.695 63.038 13.439 113.62 66.108 128.1 128.43 6.0568 13.279-2.6675 10.944-11.936 7.1503z" fill="#314a74"/>
<path d="m299.35 592.05c-90.829-46.096-175.95-102.41-262.37-156.08-31.214-10.066-29.53-39.569-19.474-65.886 15.684-69.955 29.049-140.46 44.727-210.44 8.8682-13.078 51.692-34.166 34.326-1.6595-2.995 15.423-26.782 66.284 4.4855 48.597 19.263-5.3607 52.198-34.037 65.452-17.711-21.838 15.422-50.257 21.622-72.685 37.84-16.965 3.8093-23.028 37.816-1.8187 18.598 129.45-76.694 301.57-76.159 429.29 4.079 21.856 1.0174-12.583-31.951-24.9-33.249-13.068-6.5928-55.893-17.203-44.654-30.045 24.534-1.7521 53.985 28.821 69.647 23.694 2.9741-23.226-18.623-54.483-12.662-70.334 30.911 2.9933 44.167 34.048 44.324 61.332 14.101 70.831 30.342 141.23 43.506 212.25-16.229 23.876-46.625 31.114-68.392 48.73-72.637 44.893-144.63 91.487-220.86 129.98-2.6584 1.0327-5.201 0.7739-7.9446 0.30716zm-52.191-174.11c28.756-13.473 61.772-40.804 90.164-9.6408 27.556 21.623 66.744 9.3934 78.512-22.915 11.652-13.507-1.4089-42.081 19.169-38.389 11.103-12.074 57.511-5.4973 41.076-33.177-5.0217-23.174-51.9-14.038-32.896-43.08 14.894-27.39-15.989-44.703-38.365-50.388-76.168-21.162-160.48-20.697-233.29 12.277-22.284 13.722-2.7268 46.491-4.3868 58.075-24.374-10.743-59.804 15.458-33.282 39.059 1.601 5.7929 35.616 29.609 20.459 15.347 12.595 11.723 36.088 0.41371 30.419 26.057 7.4507 25.022 32.95 57.29 62.424 46.775zm48.344-48.374c-23.075-13.401-54.075-65.646-5.3736-60.022 20.135-3.0957 71.28-0.85834 46.529 29.95-11.453 11.721-20.4 37.156-41.156 30.072zm-62.795-73.324c4.41-17.348 34.188-31.032 25.716-47.599-12.242 16.659-34.131 17.687-48.977-2.1357-27.137-10.114 36.63-14.635 47.71-16.803 50.621-5.6178 102.41-2.3137 151.55 11.367-20.197 6.5395-27.361 28.699-46.235 10.467-16.414-5.3927-10.008 31.786-26.276 11.901-6.2422-5.0853-13.992-15.313-12.029-4.8078-23.591-6.8238-49.103-3.4273-66.092 16.015-8.199 7.4772-15.897 15.666-25.363 21.595zm2.6693-131.72c-11.022-45.473 27.542-99.334 76.685-92.127 39.143 5.232 65.405 47.949 59.3 85.629-11.495 17.11-32.123 1.8373-19.575-13.164 0.70216-33.56-35.515-62.832-67.505-47.261-29.98 9.7793-27.682 45.089-31.881 66.524-5.5268 1.7244-11.381 0.50077-17.024 0.39882z" fill="#444c5a"/>
<path d="m293.5 589.65c-96.185-51.97-188.53-110.77-280.47-169.8-7.3034-24.471 8.6898-52.945 11.078-78.908 13.054-58.334 23.815-117.2 37.352-175.4 2.572-16.329 55.315-43.578 34.663-8.4388-2.4121 16.855-17.329 45.182-9.2154 56.447 24.643-12.113 49.354-25.084 75.941-32.232 17.574 15.501-30.49 18.713-40.692 30.407-17.186 7.9908-54.642 25.451-42.534 41.251 130.41-84.27 310.07-86.403 441.66-3.5806 19.357 12.415-0.22156-27.149-13.708-25.577-15.748-15.984-57.678-17.357-60.822-37.861 26.47-0.23404 50.095 17.817 73.747 28.372 4.6373-20.419-9.2294-48.004-14.11-70.427-0.68224-14.156 30.884 8.9066 37.599 15.607 17.401 82.789 34.679 165.74 51.768 248.64-3.2021 24.989-40.53 30.785-57.805 47.117-74.187 46.166-147.93 93.379-225.3 134.08-5.9755 3.1078-13.193 3.8795-19.157 0.30874zm20.526-125.06c19.382-3.1356 70.79-28.178 26.688-36.745-23.384-16.974-49.542-19.233-73.146-1.2569-17.437 3.6525-32.463 16.237-7.3192 24.5 15.827 10.142 34.741 17.513 53.777 13.501zm-167.06-36.522c5.1322-9.7507-1.5599-29.804 15.71-14.009 11.387 1.609 32.802 2.7675 28.779-13.62 14.471 3.0154 36.347 33.262 60.267 15.373 24.194-7.032 48.623-37.21 73.103-14.494 21.041 12.218 51.116 30.972 72.393 9.067 13.589-16.942 18.896-11.352 21.958 4.6299 11.917 5.7453 20.412-25.288 29.974-8.7988 8.9971 7.9043 30.555 11.665 10.013-0.83952-19.888-10.516-17.218-18.731 0.12664-22.135 12.339-6.8706 44.489-11.527 46.09-20.106-18.711-5.0286-42.354-5.1183-58.131-13.441 9.4211-7.2999 22.46-10.582 31.754-15.692 8.8793-5.0486 42-15.26 31.551-24.042-10.542-6.9123-5.9357-24.883-20.551-26.833-15.451-7.8811-23.439-16.35-41.719-11.474 1.0611-20.923-9.4789-41.617-32.484-47.554-78.807-25.592-168.01-25.671-244.27 8.5378-9.3968 4.7423-13.742 29.326-12.539 34.557-12.342-4.7835-18.241 1.3873-33.04-1.8084-21.899-6.2197-6.0931 22.144-23.384 29.487-21.306 17.69 5.0672 34.218 23.046 38.06 7.3772 6.1088 45.092 15.165 24.179 21.051-13.345 3.4517-65.908 7.628-28.713 19.945 10.172 7.4264 48.632 9.0544 38.212 21.653-12.491 11.026-37.157 26.116-20.284 24.711-5.2156-4.1218 7.9478 14.847 7.9648 7.776zm88.534-263.21c-2.489-28.677 2.1395-62.018 28.681-78.737 34.839-25.935 91.055-8.505 102.97 33.957 11.716 14.399 2.5521 62.515-16.244 38.228 2.5704-23.641-3.8344-52.418-28.981-61.179-27.138-14.237-61.164 6.3433-65.344 35.715-4.5041 16.672 6.6152 38.515-21.079 32.016z" fill="#3b4351"/>
<path d="m292.47 588.64c-54.621-28.904-107.36-61.18-159.73-93.941-9.7236-24.168 37.078-16.533 45.476-27.132 32.017 10.582 37.019-31.297 59.784-43.457 26.707-7.1796 50.9-40.701 80.117-26.138 17.942 16.859 53.667 15.789 62.125 39.186 19.46 12.547 22.836 39.322 45.773 47.122 16.576-10.848 35.611 23.577 52.146 0.28098 15.135-3.6928 30.071-20.292 42.484-19.09-69.97 42.733-138.69 88.676-212.37 125.07-5.218 1.4846-11.162 1.1185-15.806-1.901zm25.817-123.59c16.021-4.3275 65.212-25.864 27.278-35.953-27.714-22.739-59.926-17.111-87.876 0.22172-34.381 14.137 20.579 34.122 36.039 36.736 8.1443 1.273 16.56 1.0582 24.559-1.0044zm221.32-15.341c13.559-18.983 38.092-38.327 27.583-61.954 14.612-19.177 1.2029-47.208-13.211-53.87 2.6265-24.812-13.36-47.022-9.1217-71.881 6.2318-33.672-37.099-30.622-54.968-48.599-11.858-4.5385-49.844-16.778-38.329-27.291 27.341 5.9677 59.763 16.64 75.992 40.212-3.8084-29.105-14.578-58.378-21.77-87.366 33.045 2.9556 47.286 37.042 47.321 66.115 13.572 67.606 28.289 134.98 42.114 202.53-5.8053 23.879-35.234 34.044-55.611 42.105zm-480.61-1.0358c-19.281-15.395-60.708-25.122-44.868-58.427 10.205-47.981 19.91-96.17 32.627-143.48 6.1102-30.595 2.6728-65.749 22.444-91.337 10.749-14.325 43.636-24.711 26.529 3.0481-5.3974 17.233-26.782 72.635 7.989 46.786 18.489-4.7877 50.548-33.132 62.906-16.326-20.156 14.089-46.03 20.733-67.342 34.486-18.443-0.36282-40.452 41.761-10.175 24.623 43.55-29.236 95.02-45.315 146.47-54.213 100.6-16.173 207.89 3.8001 293.04 60.705 13.803 12.61 11.147 54.619-11.092 26.543-27.022-19.612-61.453-26.585-86.387-48.867-34.17-19.226-74.695-22.793-113.11-25.942-49.96-2.3366-100.83 5.6497-146.54 26.378-19.977 23.68-54.526 25.93-78.276 44.853-10.245 11.526-35.258 21.464-22.384-4.362-2.5707-14.297-27.789 16.522-10.225 15.855-7.0368 20.562-5.8141 51.717-18.838 61.414-0.89596 6.417-9.5796-7.1153-6.5975 8.5883-2.3992 12.142-4.7788 35.261 9.671 25.619 5.0131 13.249-22.865 12.726-1.733 24.892 6.4375 12.709 26.214 25.014 20.463 41.196l-4.5743-2.0332zm48.683-40.087c-26.273-9.3581-60.519-27.805-37.326-59.379-0.79857-19.514 11.607-47.265 31.788-25.38 14.964 8.6137 51.525 17.297 51.952 28.222-16.056 5.5456-55.743 5.2992-56.898 15.059 17.776 9.0063 56.307 12.042 60.219 27.859-13.377 11.366-32.676 32.603-49.735 13.619zm367.15 6.3826c-16.647-8.3708-42.547-30.693-7.9673-33.872 12.817-3.0114 64.993-18.019 26.973-21.924-12.396-0.48532-61.659-7.8111-27.854-18.475 20.903-4.907 63.709-44.668 64.846-5.6819 13.691 23.175 17.976 57.471-15.171 64.147-12.514 7.1801-25.503 17.574-40.827 15.806zm-363.83-233.69c4.7494-20.567 17.369-65.421 31.83-64.667 1.99 21.762 24.992 53.894-11.665 56.394-6.8465 2.3713-14.258 3.8098-20.166 8.2728zm124.75-16.001c-4.0386-35.634 7.2392-91.086 68.952-92.985 26.131 1.5388 67.655 5.6136 67.763 90.077-4.8338 2.4311-12.836 2.8002-20.795-1.0518 4.0034-50.866-17.559-67.544-49.796-68.993-50.196 3.1599-44.37 50.089-52.544 71.598-4.358 1.534-9.046 1.1888-13.579 1.3545z" fill="#2f3847"/>
<path d="m106.5 407.7c-35.391-18.146-43.5-22.874-43.5-25.363 0-13.461 16.698-68.495 20.303-66.918 1.7581 0.76891 7.2465 3.1866 12.197 5.3725 4.95 2.186 14.4 6.3166 21 9.1792 21.034 9.1232 42.5 19.275 42.5 20.099 0 1.0509-1.4032 1.4175-15 3.9181-6.325 1.1632-14.875 2.7709-19 3.5725-4.125 0.80161-13.119 2.371-19.988 3.4876-15.818 2.5716-16.103 2.9788-4.8176 6.892 46.076 15.977 61.805 21.841 61.805 23.04 0 1.3731-30.997 25.376-34.269 26.536-0.67706 0.24015-10.231-4.1779-21.231-9.8179zm360.44 1.5289c-15.367-11.245-22.943-17.234-22.943-18.136 0-1.0079 23.8-10.026 48.785-18.485 28.268-9.5707 28.587-8.3849-3.7852-14.037-28.419-4.962-42.055-7.9006-41.694-8.9847 0.52586-1.5776 74.938-34.582 77.969-34.582 0.99185 0 2.2397 3.3071 4.0564 10.75 1.4431 5.9125 5.2988 21.042 8.5682 33.622 7.0907 27.282 8.1186 23.605-9.185 32.858-53.899 28.82-47.876 27.163-61.771 16.995zm-396.56-122.34c3.0431-19.553 3.1126-27.805 12.21-34.134 21.106-14.683 61.143-33.378 68.019-36.073 93.982-36.845 202.1-41.361 298.35-2.7059 40.074 16.094 72.994 35.022 78.499 38.211 2.5195 1.46 4.8346 16.372 6.7697 27.358 2.0844 11.834 2.3803 11.427-4.8532 6.6779-16.914-11.104-29.124-18.244-42.878-25.073-20.058-9.9591-37.36-18.071-39.908-18.71-1.328-0.33331-3.6206-1.9596-5.0946-3.6139-2.2757-2.554-3.174-2.9152-5.9536-2.3938-3.0386 0.57006-3.2407 0.44203-2.8152-1.7839 0.78454-4.1041-8.3477-8.4341-32.046-15.195-71.673-20.446-153.52-17.514-216.68 7.7641-13.781 5.5157-15.24 6.3931-12.992 7.8147 1.1153 0.70514 0.67822 0.94691-1.7327 0.95836-2.5342 0.012-3.5434 0.63237-4.7151 2.8981-0.81992 1.5856-2.6501 3.1738-4.067 3.5294-10.11 2.5375-63.487 30.361-80.234 41.824-11.561 7.9126-10.657 7.6705-9.8752 2.6464zm10.007-55.037c0.37386-1.8402 1.2002-6.2708 1.8364-9.8458 1.1567-6.5 1.1567-6.5 11.714-11.944 18.589-9.5849 42.185-20.068 55.431-24.626 14.599-5.024 13.708-4.8059 13.377-3.272-0.1375 0.6369 1.0839 1.8744 2.7143 2.75 6.9979 3.7582 6.6691 4.1953-6.9181 9.1967-8.181 3.0113-59.023 28.902-69.94 35.617-8.8942 5.4701-8.8942 5.4701-8.2144 2.1243zm438.52-1.2665c-8.152-5.3651-41.439-23.005-52.914-28.041-21.845-9.5872-21-9.0665-21-12.94 0-3.6327 1.8511-4.6006 8.5-4.4447 6.3982 0.15005 43.452 15.939 59.537 25.368 4.2014 2.4631 8.0733 4.4784 8.6042 4.4784 0.78756 0 5.4313 16.631 5.375 19.25-0.0291 1.3544-1.433 0.71829-8.1018-3.6707z" fill="#182e62"/>
<path d="m299.25 591.02c-35.609-17.443-70.079-37.23-102.99-59.352-1.9728-28.576 33.209-16.519 50.422-18.54 26.512-3.4918 7.021-43.882 27.116-47.463 17.82 1.3648 41.76 0.65391 55.537 6.3497 2.7056 20.385 4.2005 50.957 31.263 52.704 13.721-3.5848 24.425-7.3387 36.229 3.8298 5.4234-1.5117 30.544-13.562 22.271-1.4148-37.87 22.679-75.078 48.018-116.37 63.902-1.1505 0.16579-2.3215-0.0347-3.4792-0.0147zm68.576-427.53c-25.615-6.676-12.282-39.252-25.786-55.46-16.401-22.434-53.064-15.877-69.726-11.082 5.1765-25.515 39.503-26.477 58.266-16.134 29.535 14.229 47.589 50.902 37.246 82.676zm-131.18-4.2384c-6.4717-15.85 4.4069-56.088 21.469-43.978-2.2679 13.688 0.2574 50.62-21.469 43.978z" fill="#28303d"/>
</g>
</svg>
